<!-- created potential logo for app -->
<svg version="1.1" id="Layer_1" xmlns="http://www.w3.org/2000/svg" xmlns:xlink="http://www.w3.org/1999/xlink" x="0px" y="0px"
	 width="100%" viewBox="0 0 1080 1080" enable-background="new 0 0 1080 1080" xml:space="preserve">
<path fill="#8535A8" opacity="1.000000" stroke="none" 
	d="
M1080.652832,848.660522 
	C1081.000000,924.978455 1080.974609,1000.957031 1081.086182,1076.935303 
	C1081.091064,1080.216309 1080.623413,1081.102661 1077.066895,1081.101562 
	C719.668152,1080.992920 362.269440,1080.992188 4.870734,1081.108032 
	C1.186334,1081.109253 0.919809,1080.022095 0.923878,1076.872803 
	C1.021635,1001.227722 1.000000,925.582520 1.000000,849.468628 
	C2.342077,847.273865 4.202301,846.752197 6.283011,846.648132 
	C9.115178,846.506470 11.947862,846.523132 14.780674,846.522888 
	C82.279953,846.516846 149.779236,846.524353 217.278519,846.515747 
	C229.411255,846.514160 230.504288,845.428345 230.516418,833.485107 
	C230.527924,822.151917 230.520981,810.818665 230.518784,799.485474 
	C230.515991,784.968994 230.040558,784.482544 215.749069,784.481689 
	C163.582962,784.478699 111.416847,784.483582 59.250732,784.478882 
	C42.750931,784.477417 26.250868,784.540100 9.751553,784.426758 
	C6.990554,784.407837 4.012379,784.933838 1.347021,782.339355 
	C1.000000,523.209412 1.014675,264.418762 0.874164,5.628226 
	C0.871822,1.315519 2.068397,0.905799 5.870301,0.906866 
	C362.644714,1.006983 719.419189,1.007949 1076.193604,0.897508 
	C1080.127686,0.896290 1081.120361,1.516371 1081.118164,5.692085 
	C1080.986694,264.148926 1081.000000,522.605774 1081.000000,781.531372 
	C1079.657959,783.726135 1077.797729,784.247803 1075.717041,784.351868 
	C1072.884888,784.493530 1070.052124,784.476868 1067.219360,784.477112 
	C999.720154,784.483154 932.220886,784.475708 864.721680,784.484314 
	C852.588989,784.485840 851.495728,785.571899 851.483582,797.514709 
	C851.472107,808.847900 851.479004,820.181152 851.481140,831.514343 
	C851.483948,846.031189 851.959229,846.517456 866.250610,846.518311 
	C918.416687,846.521240 970.582764,846.516479 1022.748840,846.521118 
	C1039.248657,846.522583 1055.748657,846.459900 1072.247925,846.573242 
	C1075.009033,846.592163 1077.987305,846.065674 1080.652832,848.660522 
z"/>
<path fill="#FFFEFF" opacity="1.000000" stroke="none" 
	d="
M1.000000,782.468628 
	C76.497490,781.999451 151.995071,782.044739 227.492233,781.887512 
	C232.160065,781.877808 233.275696,783.198486 233.216766,787.689392 
	C232.974030,806.185608 232.970642,824.688782 233.218231,843.184814 
	C233.279129,847.733887 232.059372,849.018616 227.426849,849.009949 
	C152.263046,848.869080 77.098877,848.919189 1.467397,848.963013 
	C1.000000,826.979126 1.000000,804.958191 1.000000,782.468628 
z"/>
<path fill="#FFFEFF" opacity="1.000000" stroke="none" 
	d="
M1081.000000,848.531372 
	C1021.668152,848.968262 962.336243,848.934692 903.004395,848.905884 
	C886.671204,848.897949 870.336853,848.804443 854.005554,848.979980 
	C850.279541,849.020081 848.837585,848.295776 848.891479,844.121033 
	C849.136414,825.124329 849.127869,806.121094 848.896851,787.124023 
	C848.846680,782.999756 849.858948,781.891357 854.064575,781.898987 
	C929.397095,782.036255 1004.729980,781.998840 1080.531372,781.999451 
	C1081.000000,804.020874 1081.000000,826.041809 1081.000000,848.531372 
z"/>
<path fill="#FFFFFF" opacity="1.000000" stroke="none" 
	d="
M235.761017,461.602203 
	C238.697647,436.241699 244.987030,412.205017 254.044571,388.831940 
	C269.169037,349.803009 291.503113,315.398804 320.607697,285.445984 
	C340.270996,265.209625 362.496399,248.160934 386.965607,234.008453 
	C419.288605,215.313553 453.838165,202.848816 490.661194,196.975708 
	C537.376770,189.524780 583.542847,192.131256 629.006226,205.651779 
	C676.629028,219.814514 718.294250,244.118698 754.130249,278.519318 
	C787.648010,310.694550 812.686768,348.416412 828.999817,391.946899 
	C850.064758,448.157837 854.121216,505.666107 842.191040,564.365723 
	C836.221497,593.738037 825.855591,621.577698 811.513489,647.865417 
	C794.051880,679.870667 771.585144,707.891541 744.157532,732.017761 
	C723.562195,750.134094 701.058777,765.323364 676.471375,777.310852 
	C636.265991,796.912842 593.738953,807.181091 548.953064,808.331787 
	C510.414490,809.321960 472.977173,803.523193 436.772064,790.503174 
	C396.496124,776.019104 360.713928,754.028809 329.556488,724.560120 
	C300.575867,697.150330 277.734619,665.350098 261.075317,629.155273 
	C245.826508,596.024963 236.981033,561.199341 234.055603,524.828064 
	C232.366074,503.822571 232.797134,482.912292 235.761017,461.602203 
z"/>
<path fill="#8536A8" opacity="1.000000" stroke="none" 
	d="
M651.955933,417.949402 
	C668.442078,401.515106 692.799011,399.501984 710.998230,412.839417 
	C729.021362,426.047791 735.029053,450.567200 725.359070,470.402374 
	C722.455017,476.359314 718.440857,481.384247 713.870850,485.972992 
	C684.353088,515.611877 654.738831,545.154724 625.168579,574.741394 
	C607.736206,592.183350 590.689209,610.030151 572.807007,626.997375 
	C554.040527,644.803650 526.877014,644.322144 508.533844,626.099670 
	C460.768890,578.648926 413.151611,531.047913 365.716125,483.267853 
	C347.492981,464.912354 347.112762,437.350464 364.901978,418.437195 
	C380.874420,401.455536 407.183868,400.369995 425.020599,413.708679 
	C428.901459,416.610870 432.334198,419.997162 435.756134,423.413086 
	C462.527954,450.138123 489.317200,476.845795 516.131958,503.527740 
	C523.451721,510.811249 530.967102,517.900208 538.199097,525.268555 
	C540.413940,527.525146 541.693726,527.331421 543.799500,525.193604 
	C551.983276,516.885193 560.353271,508.760406 568.637207,500.550354 
	C596.330322,473.104279 624.016174,445.650879 651.955933,417.949402 
z"/>
</svg>