<!-- created logo for app -->
<svg version="1.1" id="Layer_1" xmlns="http://www.w3.org/2000/svg" xmlns:xlink="http://www.w3.org/1999/xlink" x="0px" y="0px"
	 width="100%" viewBox="0 0 1080 1080" enable-background="new 0 0 1080 1080" xml:space="preserve">
<path fill="#7F3BBA" opacity="1.000000" stroke="none" 
	d="
M1080.653809,848.662842 
	C1081.000000,924.978455 1080.974609,1000.957031 1081.086182,1076.935303 
	C1081.091064,1080.216309 1080.623413,1081.102661 1077.066895,1081.101562 
	C719.668152,1080.992920 362.269440,1080.992188 4.870734,1081.108032 
	C1.186334,1081.109253 0.919809,1080.022095 0.923878,1076.872803 
	C1.021635,1001.227722 1.000000,925.582520 1.000000,849.468628 
	C2.322022,847.264587 4.149454,846.680176 6.247835,846.603333 
	C8.913515,846.505737 11.578918,846.508972 14.244673,846.508850 
	C81.729538,846.504333 149.214401,846.509766 216.699265,846.503540 
	C229.367599,846.502380 230.494080,845.388794 230.503204,832.921021 
	C230.512222,820.590454 230.525314,808.259827 230.490738,795.929321 
	C230.483307,793.274414 230.633957,790.568848 228.845642,787.815491 
	C228.333771,787.257751 228.113419,787.047668 227.528900,786.557373 
	C223.897141,784.001038 220.141800,784.514709 216.517319,784.513245 
	C149.245422,784.485962 81.973511,784.495911 14.701608,784.491638 
	C12.037614,784.491516 9.370615,784.561279 6.710960,784.392883 
	C4.901077,784.278320 3.009463,784.300049 1.350506,782.338501 
	C1.000000,523.209412 1.014675,264.418762 0.874164,5.628226 
	C0.871822,1.315519 2.068397,0.905799 5.870301,0.906866 
	C362.644714,1.006983 719.419189,1.007949 1076.193604,0.897508 
	C1080.127686,0.896290 1081.120361,1.516371 1081.118164,5.692085 
	C1080.986694,264.148926 1081.000000,522.605774 1081.000000,781.531372 
	C1079.686646,783.750244 1077.843018,784.308472 1075.756592,784.393188 
	C1073.092041,784.501221 1070.427124,784.491333 1067.762085,784.491516 
	C1000.295593,784.495789 932.829041,784.489990 865.362549,784.496887 
	C852.555176,784.498230 851.502563,785.572998 851.495728,798.524902 
	C851.489441,810.352356 851.475281,822.179871 851.500488,834.007263 
	C851.523865,844.930115 853.046082,846.492737 863.896118,846.496094 
	C931.529236,846.516968 999.162292,846.503418 1066.795410,846.508484 
	C1069.627075,846.508667 1072.461304,846.438782 1075.289185,846.604309 
	C1077.106689,846.710632 1078.995361,846.704712 1080.653809,848.662842 
z"/>
<path fill="#360568" opacity="1.000000" stroke="none" 
	d="
M1081.000000,848.531372 
	C1006.888733,848.969604 932.777527,848.939270 858.666260,848.908020 
	C856.834290,848.907227 854.998535,848.817261 853.171326,848.907104 
	C850.279358,849.049255 848.962402,847.950012 848.975098,844.862915 
	C849.055847,825.211182 849.041931,805.558838 848.987732,785.906860 
	C848.980347,783.217041 849.883911,781.832031 852.732117,782.002136 
	C854.391174,782.101135 856.061707,782.000854 857.727112,782.000854 
	C931.838989,781.999817 1005.950867,782.000000 1080.531372,782.000000 
	C1081.000000,804.020874 1081.000000,826.041809 1081.000000,848.531372 
z"/>
<path fill="#360568" opacity="1.000000" stroke="none" 
	d="
M232.738937,782.760864 
	C232.997772,803.310364 232.938309,823.624634 233.160126,843.935852 
	C233.210815,848.575378 230.842346,848.955322 227.226868,848.946350 
	C198.420410,848.875244 169.613678,848.903992 140.807037,848.909668 
	C94.516716,848.918762 48.226387,848.933716 1.468032,848.973022 
	C1.000000,826.979126 1.000000,804.958191 1.000000,782.468628 
	C77.692055,782.018066 154.384109,782.036133 231.543884,782.096191 
	C232.181992,782.266968 232.352341,782.395752 232.738937,782.760864 
z"/>
<path fill="#360568" opacity="1.000000" stroke="none" 
	d="
M504.665527,194.959198 
	C507.075745,194.694809 509.153320,194.456161 511.618652,194.173279 
	C512.800171,194.015579 513.600708,194.004120 514.698975,193.948639 
	C549.657166,191.375320 583.905701,193.763824 617.618713,202.502014 
	C669.492737,215.947433 714.889526,241.015823 753.689026,278.063049 
	C792.604858,315.221436 820.048218,359.528229 835.539673,410.944489 
	C853.144043,469.373352 853.493835,528.168518 836.496826,586.866699 
	C822.573181,634.951050 798.168762,677.031494 763.609802,713.312500 
	C738.762573,739.397888 710.272644,760.518738 678.080627,776.483032 
	C637.503662,796.605469 594.487366,807.146484 549.109375,808.286377 
	C503.246338,809.438538 459.285309,801.145935 417.297302,782.750305 
	C384.029205,768.174988 354.179260,748.362244 328.025116,723.084961 
	C281.498383,678.118225 251.582169,623.961853 239.013382,560.496094 
	C226.831055,498.981781 232.944641,439.037781 257.090759,381.215302 
	C275.817139,336.371399 303.860687,298.069672 340.973541,266.530457 
	C387.678131,226.840012 441.452179,203.163956 502.606445,195.203018 
	C503.447693,195.074112 503.889648,195.023956 504.665527,194.959198 
z"/>
<path fill="#5B2192" opacity="1.000000" stroke="none" 
	d="
M514.753906,193.826080 
	C514.164673,194.058380 513.330994,194.188400 512.251892,194.223724 
	C512.772339,193.571320 513.611267,193.464584 514.753906,193.826080 
z"/>
<path fill="#5B2192" opacity="1.000000" stroke="none" 
	d="
M504.799805,194.854019 
	C504.466888,195.049728 503.935577,195.166016 503.205627,195.208832 
	C503.538483,195.015106 504.069946,194.894867 504.799805,194.854019 
z"/>
<path fill="#451079" opacity="1.000000" stroke="none" 
	d="
M232.875183,782.782471 
	C232.721146,782.834106 232.503983,782.651001 232.157654,782.293091 
	C232.337723,782.162903 232.598907,782.306091 232.875183,782.782471 
z"/>
<path fill="#7F3BBA" opacity="1.000000" stroke="none" 
	d="
M528.022217,637.687622 
	C520.063293,635.582153 513.733093,631.307861 508.253662,625.838074 
	C460.848480,578.516113 413.435822,531.201172 366.171631,483.738495 
	C347.784821,465.274445 347.264160,438.423950 364.454285,418.772797 
	C378.608215,402.592529 407.770416,399.961853 424.666779,413.434753 
	C428.173035,416.230560 431.533478,419.245361 434.714294,422.407532 
	C461.536835,449.073425 488.284882,475.814240 515.095398,502.492249 
	C522.532776,509.892792 530.206238,517.058350 537.560608,524.538818 
	C540.220459,527.244324 541.961914,526.990479 544.492798,524.426147 
	C552.800354,516.008728 561.333740,507.814758 569.731995,499.486206 
	C597.295288,472.151794 624.840393,444.798981 652.385498,417.446228 
	C660.389771,409.497803 669.959595,405.001617 681.662964,404.249146 
	C683.807617,403.869263 685.552185,403.980499 687.618286,404.158875 
	C722.925476,408.539185 740.811401,444.502167 722.907837,474.875031 
	C720.493042,478.971649 717.111511,482.602112 713.736206,486.011505 
	C695.697571,504.232635 677.494873,522.291260 659.394043,540.450989 
	C631.774475,568.160461 604.154846,595.870239 576.617920,623.661804 
	C569.296692,631.050720 560.994019,636.551208 550.363953,638.879883 
	C549.549927,638.979980 549.105286,639.030762 548.337280,639.184570 
	C544.386169,639.806335 540.751526,640.064148 536.660400,639.599548 
	C535.085266,638.995789 533.850952,638.980103 532.309326,638.941223 
	C531.615479,638.825256 531.229004,638.732544 530.557617,638.551453 
	C529.616455,638.277344 528.993225,637.999634 528.022217,637.687622 
z"/>
<path fill="#6B2CA3" opacity="1.000000" stroke="none" 
	d="
M687.634033,404.076569 
	C686.228149,404.988464 684.482666,405.091156 682.389038,404.366638 
	C683.781677,403.373352 685.541260,403.422058 687.634033,404.076569 
z"/>
<path fill="#5B2192" opacity="1.000000" stroke="none" 
	d="
M532.325745,639.080627 
	C533.317871,638.336121 534.598022,638.288513 536.021423,639.369690 
	C535.034607,639.458496 533.842041,639.350891 532.325745,639.080627 
z"/>
<path fill="#5B2192" opacity="1.000000" stroke="none" 
	d="
M527.909790,637.777466 
	C528.412537,637.766296 529.132874,637.928345 530.062988,638.276733 
	C529.557678,638.292236 528.842590,638.121460 527.909790,637.777466 
z"/>
<path fill="#5B2192" opacity="1.000000" stroke="none" 
	d="
M548.210999,639.339905 
	C548.538391,639.111206 549.065552,638.957275 549.794922,638.877380 
	C549.468323,639.105835 548.939514,639.260254 548.210999,639.339905 
z"/>
</svg>